inDegrees=yes
name=ik_lifting_orientations
DataType=double
version=3
OpenSimVersion=4.5-2024-01-10-34fd6af
endheader
time	pelvis_tilt	pelvis_list	pelvis_rotation	pelvis_tx	pelvis_ty	pelvis_tz	hip_flexion_r	hip_adduction_r	hip_rotation_r	knee_angle_r	knee_angle_r_beta	ankle_angle_r	subtalar_angle_r	mtp_angle_r	hip_flexion_l	hip_adduction_l	hip_rotation_l	knee_angle_l	knee_angle_l_beta	ankle_angle_l	subtalar_angle_l	mtp_angle_l	lumbar_extension	lumbar_bending	lumbar_rotation	arm_flex_r	arm_add_r	arm_rot_r	elbow_flex_r	pro_sup_r	wrist_flex_r	wrist_dev_r	arm_flex_l	arm_add_l	arm_rot_l	elbow_flex_l	pro_sup_l	wrist_flex_l	wrist_dev_l
2	-2.200862256040848	-4.258190620322111	-83.98049229198809	0	0.9399999998679526	0	45.12123395291975	-10.00159332969718	0	60.07413218883058	1.048491401973402	-5.000139493817298	0	0	45.12123395291975	-10.00159332969718	0	60.07413218883058	1.048491401973402	-5.000139493817298	0	0	-13.4116923872241	0.488423239771137	-23.43786301016726	71.05713481781611	22.95545807500142	43.19104897611785	128.1144826536219	0.2675564235177175	0	0	0	-14.0213443857905	0	89.74011476777602	0.2675564235177175	0	0
2.01	-2.244330260143231	-4.247418005367944	-83.75465080261807	0	0.9399999998679526	0	45.11988877103835	-10.00154927787186	0	60.07333239807937	1.048477442991466	-5.000134828890128	0	0	45.11988877103835	-10.00154927787186	0	60.07333239807937	1.048477442991466	-5.000134828890128	0	0	-13.38734753949507	0.6008918974703131	-23.45973831103722	72.77141863119115	26.07304588670326	42.4430141550758	123.5642120869701	0.2652999132646889	0	0	0	-14.02785630728569	0	89.74230509040643	0.2652999132646889	0	0
2.02	-2.349748216910376	-4.195991448039122	-83.08857381313327	0	0.9399999998679526	0	45.11971222401424	-10.00154134486258	0	60.07324776644548	1.048475965890803	-5.000133929130127	0	0	45.11971222401424	-10.00154134486258	0	60.07324776644548	1.048475965890803	-5.000133929130127	0	0	-13.31525954188539	0.8456240149079128	-23.89842352367617	74.40039332391873	28.59173555092041	41.59852312354946	119.0864855399715	0.2650278815749695	0	0	0	-14.02858967771065	0	89.74256914308391	0.2650278815749695	0	0
2.03	-2.379382456833036	-4.004577178289956	-82.96794876293849	0	0.9399999998679526	0	45.11850691218534	-10.00150415254204	0	60.07251576544071	1.048463190063142	-5.000130058291648	0	0	45.11850691218534	-10.00150415254204	0	60.07251576544071	1.048463190063142	-5.000130058291648	0	0	-13.18420081025763	0.8871031241536974	-23.83908695372878	76.13471388476047	31.28779564038081	40.77866452204145	114.8220158990505	0.2629820754394009	0	0	0	-14.03454367368571	0	89.74455494176183	0.2629820754394009	0	0
2.04	-2.443303868930133	-3.701992309452663	-82.80132175246162	0	0.9399999998679526	0	45.11749636258334	-10.00147305999814	0	60.07190433172937	1.048452518531722	-5.000126826149184	0	0	45.11749636258334	-10.00147305999814	0	60.07190433172937	1.048452518531722	-5.000126826149184	0	0	-13.00435309361955	0.9423186050179708	-23.75317962827457	77.85327340809785	33.756421895952	40.06788478725561	110.7721555775802	0.2612662567334084	0	0	0	-14.03953820469696	0	89.74622043217697	0.2612662567334084	0	0
2.05	-2.45517823072061	-3.514952627420394	-83.0920098325676	0	0.9399999998679526	0	45.11741102398073	-10.00146932755024	0	60.07186339668176	1.048451804080361	-5.000126406687383	0	0	45.11741102398073	-10.00146932755024	0	60.07186339668176	1.048451804080361	-5.000126406687383	0	0	-13.0053427618496	0.8502497273330689	-23.26803118829096	79.82400648881736	36.0488631748923	39.07214513172605	106.3126010877861	0.2611341438894411	0	0	0	-14.03989554097775	0	89.74634866999079	0.2611341438894411	0	0
2.06	-2.522246230470742	-3.261645748089394	-82.80840139109735	0	0.9399999998679526	0	45.11733432270892	-10.00146597184504	0	60.07182665515439	1.048451162819736	-5.000126029681581	0	0	45.11733432270892	-10.00146597184504	0	60.07182665515439	1.048451162819736	-5.000126029681581	0	0	-12.93046295952362	0.9363249585708876	-23.42127045367805	81.61260799526585	38.21929766727101	38.29603056300569	102.6010092801181	0.2610154482179453	0	0	0	-14.04021646694165	0	89.7464638841746	0.2610154482179453	0	0
2.07	-2.585270678327856	-3.031460901701102	-82.75005224379007	0	0.9399999998679526	0	45.11724936410459	-10.00146227123457	0	60.07178586725253	1.048450450936554	-5.000125614456763	0	0	45.11724936410459	-10.00146227123457	0	60.07178586725253	1.048450450936554	-5.000125614456763	0	0	-12.68996868933813	0.9837066123243544	-23.33836427501418	83.14972097356006	39.84724958353709	37.507965730343	98.79317876786816	0.2608838400205137	0	0	0	-14.04057259480265	0	89.74659163214326	0.2608838400205137	0	0
2.08	-2.689501223540027	-2.815980329026572	-82.26151493269735	0	0.9399999998679526	0	45.11716716052089	-10.00145869053294	0	60.07174644959026	1.048449762968564	-5.000125212840188	0	0	45.11716716052089	-10.00145869053294	0	60.07174644959026	1.048449762968564	-5.000125212840188	0	0	-12.20087395959739	1.183813936483396	-23.74625740588647	84.136112302668	41.44752374432886	37.04596033673222	95.42514961953017	0.2607565396480301	0	0	0	-14.04091695695413	0	89.74671519864113	0.2607565396480301	0	0
2.09	-2.799154665076972	-2.613230809033777	-81.7881452594378	0	0.9399999998679526	0	45.1170809248276	-10.00145494268789	0	60.071705077121	1.048449040882756	-5.000124792838065	0	0	45.1170809248276	-10.00145494268789	0	60.071705077121	1.048449040882756	-5.000124792838065	0	0	-11.79059566230827	1.369865799940086	-24.25850324232111	85.01203559911207	42.82021032305125	36.63676557604147	92.51083402241423	0.2606229471390119	0	0	0	-14.04127843075069	0	89.74684487271924	0.2606229471390119	0	0
2.1	-2.880288617650133	-2.427334697446639	-81.48432719663175	0	0.9399999998679526	0	45.11699513060558	-10.00145122704551	0	60.07166385466819	1.048448321415228	-5.000124376902725	0	0	45.11699513060558	-10.00145122704551	0	60.07166385466819	1.048448321415228	-5.000124376902725	0	0	-11.2125985090284	1.517432947951949	-24.50416620863	85.31305930709195	43.51001474643906	36.5002315232181	90.18164728958084	0.2604899399611854	0	0	0	-14.04163852830398	0	89.74697397863385	0.2604899399611854	0	0
2.11	-2.918829055631455	-2.308896898904474	-81.30653426907429	0	0.9399999998679526	0	45.11690793961291	-10.00144745125475	0	60.07162201552178	1.048447591184367	-5.000123954430133	0	0	45.11690793961291	-10.00144745125475	0	60.07162201552178	1.048447591184367	-5.000123954430133	0	0	-10.58539739406657	1.609014044511019	-24.74582262221361	86.07695698704171	43.93793831899565	35.88581847337162	86.38663903883412	0.2603548126130443	0	0	0	-14.04200423976513	0	89.74710514253204	0.2603548126130443	0	0
2.12	-2.934640452694	-2.182210545080073	-81.42548096571049	0	0.9399999998679526	0	45.11681379978462	-10.00144337769368	0	60.0715768748704	1.048446803331374	-5.000123498909249	0	0	45.11681379978462	-10.00144337769368	0	60.0715768748704	1.048446803331374	-5.000123498909249	0	0	-9.964773059592028	1.613007175158787	-24.70154922133332	86.60981488255339	44.3328820948265	35.58154488045239	83.20047114302784	0.2602089323588108	0	0	0	-14.04239899357271	0	89.74724674394075	0.2602089323588108	0	0
2.13	-2.980984033660934	-2.053449482523018	-81.44467200251844	0	0.9399999998679526	0	45.11677618820444	-10.00144177096009	0	60.07155867266563	1.04844648564297	-5.000123319743827	0	0	45.11677618820444	-10.00144177096009	0	60.07155867266563	1.04844648564297	-5.000123319743827	0	0	-9.377850726019009	1.689605143208634	-24.65805572088989	86.55203315216175	44.7046452128595	35.70381235197475	81.5065363259388	0.2601504334075746	0	0	0	-14.04255778297732	0	89.74730352704475	0.2601504334075746	0	0
2.14	-2.947657977299626	-1.9780646415464	-81.66826212632516	0	0.9399999998679526	0	45.11672537460103	-10.00143957934583	0	60.07153428394267	1.048446059979454	-5.000123074955525	0	0	45.11672537460103	-10.00143957934583	0	60.07153428394267	1.048446059979454	-5.000123074955525	0	0	-8.878605413706012	1.639921088410615	-24.43279955639708	86.5204854638194	44.61484652761737	35.92685298805171	78.79619232940155	0.2600716469482466	0	0	0	-14.04277106873301	0	89.74738000260095	0.2600716469482466	0	0
2.15	-2.920897140953828	-1.865291531355978	-81.87597568764338	0	0.9399999998679526	0	45.11669190214054	-10.00143814162611	0	60.07151817681812	1.048445778857097	-5.000122914538525	0	0	45.11669190214054	-10.00143814162611	0	60.07151817681812	1.048445778857097	-5.000122914538525	0	0	-8.335941118454166	1.615761579393723	-24.17326452025378	86.37039373059289	44.51761628789267	36.27548145664684	76.33852599552334	0.2600196916432189	0	0	0	-14.04291184403463	0	89.74743043399295	0.2600196916432189	0	0
2.16	-2.917560571979969	-1.763280873758834	-81.85505778659157	0	0.9399999998679526	0	45.11666427821329	-10.00143695470248	0	60.07150489235513	1.048445546999479	-5.000122782111199	0	0	45.11666427821329	-10.00143695470248	0	60.07150489235513	1.048445546999479	-5.000122782111199	0	0	-7.857857326755479	1.586840090758232	-24.13560308599596	86.0924108220572	44.46290298175241	36.83305057870871	74.82161838131202	0.2599768225854796	0	0	0	-14.04302797929052	0	89.74747204564858	0.2599768225854796	0	0
2.17	-2.932522638415163	-1.612300265488334	-81.80923034766249	0	0.9399999998679526	0	45.11658668384103	-10.0014336062484	0	60.07146773472007	1.048444898476405	-5.000122408300788	0	0	45.11658668384103	-10.0014336062484	0	60.07146773472007	1.048444898476405	-5.000122408300788	0	0	-7.234819971692798	1.664973923362713	-24.09954719501579	85.36849965415476	44.07436855258909	37.79252092830019	73.68604598096279	0.2598565901184945	0	0	0	-14.04335326164827	0	89.74758875155108	0.2598565901184945	0	0
2.18	-2.944857991454472	-1.421578513980273	-81.91137229809904	0	0.9399999998679526	0	45.11653341676509	-10.00143131363727	0	60.07144219734001	1.04844445276504	-5.000122152571606	0	0	45.11653341676509	-10.00143131363727	0	60.07144219734001	1.04844445276504	-5.000122152571606	0	0	-6.674526150539396	1.649118643234192	-23.87777028790819	84.92992661352098	43.74068713810159	38.51042163591117	72.29869824615642	0.2597740064181566	0	0	0	-14.04357678514173	0	89.74766891297074	0.2597740064181566	0	0
2.19	-2.936737465618984	-1.278928524681179	-82.00884170190388	0	0.9399999998679526	0	45.11645202885381	-10.0014278104314	0	60.07140322260376	1.048443772527568	-5.000121761938122	0	0	45.11645202885381	-10.0014278104314	0	60.07140322260376	1.048443772527568	-5.000121761938122	0	0	-6.084849561730465	1.683297606574305	-23.67347471956073	84.07625145315795	43.32387166290204	39.55764925602874	71.53545214176309	0.2596478634805712	0	0	0	-14.0439181033455	0	89.7477913559824	0.2596478634805712	0	0
2.2	-2.946196932693169	-1.133555728393257	-82.096054831716	0	0.9399999998679526	0	45.11638303879059	-10.0014248454545	0	60.07137018119559	1.048443195846206	-5.000121431541824	0	0	45.11638303879059	-10.0014248454545	0	60.07137018119559	1.048443195846206	-5.000121431541824	0	0	-5.570763078820711	1.673057779488883	-23.53852815531434	83.38507757787416	42.81222697532352	40.38802751680105	71.03721828916085	0.2595409163894589	0	0	0	-14.04420751267694	0	89.74789516618503	0.2595409163894589	0	0
2.21	-2.997281976852728	-1.052689689353993	-81.72168093336234	0	0.9399999998679526	0	45.11632818562093	-10.00142249363137	0	60.07134388611937	1.048442736910549	-5.000121169675254	0	0	45.11632818562093	-10.00142249363137	0	60.07134388611937	1.048442736910549	-5.000121169675254	0	0	-5.102928687800023	1.777260024526426	-23.87594371887815	82.42250587661739	42.33232127079303	41.41010232250466	70.63518047707703	0.2594558437460843	0	0	0	-14.04443781057868	0	89.74797774354381	0.2594558437460843	0	0
